<?xml version="1.0" encoding="utf-8" standalone="no"?>
<!DOCTYPE svg PUBLIC "-//W3C//DTD SVG 1.1//EN"
  "http://www.w3.org/Graphics/SVG/1.1/DTD/svg11.dtd">
<svg xmlns:xlink="http://www.w3.org/1999/xlink" width="460.8pt" height="345.6pt" viewBox="0 0 460.8 345.6" xmlns="http://www.w3.org/2000/svg" version="1.1">
 <metadata>
  <rdf:RDF xmlns:dc="http://purl.org/dc/elements/1.1/" xmlns:cc="http://creativecommons.org/ns#" xmlns:rdf="http://www.w3.org/1999/02/22-rdf-syntax-ns#">
   <cc:Work>
    <dc:type rdf:resource="http://purl.org/dc/dcmitype/StillImage"/>
    <dc:date>2024-05-18T18:19:53.680550</dc:date>
    <dc:format>image/svg+xml</dc:format>
    <dc:creator>
     <cc:Agent>
      <dc:title>Matplotlib v3.5.0, https://matplotlib.org/</dc:title>
     </cc:Agent>
    </dc:creator>
   </cc:Work>
  </rdf:RDF>
 </metadata>
 <defs>
  <style type="text/css">*{stroke-linejoin: round; stroke-linecap: butt}</style>
 </defs>
 <g id="figure_1">
  <g id="patch_1">
   <path d="M 0 345.6 
L 460.8 345.6 
L 460.8 0 
L 0 0 
z
" style="fill: #ffffff"/>
  </g>
  <g id="axes_1">
   <g id="patch_2">
    <path d="M 57.6 307.584 
L 414.72 307.584 
L 414.72 41.472 
L 57.6 41.472 
z
" style="fill: #ffffff"/>
   </g>
   <g id="matplotlib.axis_1">
    <g id="xtick_1">
     <g id="line2d_1">
      <path d="M 73.832727 307.584 
L 73.832727 41.472 
" clip-path="url(#pdf4a554698)" style="fill: none; stroke: #b0b0b0; stroke-width: 0.8; stroke-linecap: square"/>
     </g>
     <g id="line2d_2">
      <defs>
       <path id="mf3d574e89f" d="M 0 0 
L 0 3.5 
" style="stroke: #000000; stroke-width: 0.8"/>
      </defs>
      <g>
       <use xlink:href="#mf3d574e89f" x="73.832727" y="307.584" style="stroke: #000000; stroke-width: 0.8"/>
      </g>
     </g>
     <g id="text_1">
      <!-- 2014 -->
      <g transform="translate(63.832727 321.459)scale(0.1 -0.1)">
       <defs>
        <path id="SimHei-32" d="M 300 250 
Q 325 625 650 925 
Q 975 1225 1475 1862 
Q 1975 2500 2125 2850 
Q 2275 3200 2237 3450 
Q 2200 3700 2000 3862 
Q 1800 4025 1537 4000 
Q 1275 3975 1037 3800 
Q 800 3625 675 3275 
L 200 3350 
Q 400 3925 712 4187 
Q 1025 4450 1450 4475 
Q 1700 4500 1900 4462 
Q 2100 4425 2312 4287 
Q 2525 4150 2662 3875 
Q 2800 3600 2762 3212 
Q 2725 2825 2375 2287 
Q 2025 1750 1025 600 
L 2825 600 
L 2825 150 
L 300 150 
L 300 250 
z
" transform="scale(0.015625)"/>
        <path id="SimHei-30" d="M 225 2537 
Q 250 3200 412 3587 
Q 575 3975 875 4225 
Q 1175 4475 1612 4475 
Q 2050 4475 2375 4112 
Q 2700 3750 2800 3200 
Q 2900 2650 2862 1937 
Q 2825 1225 2612 775 
Q 2400 325 1975 150 
Q 1550 -25 1125 187 
Q 700 400 525 750 
Q 350 1100 275 1487 
Q 200 1875 225 2537 
z
M 750 2687 
Q 675 2000 800 1462 
Q 925 925 1212 700 
Q 1500 475 1800 612 
Q 2100 750 2237 1162 
Q 2375 1575 2375 2062 
Q 2375 2550 2337 2950 
Q 2300 3350 2112 3675 
Q 1925 4000 1612 4012 
Q 1300 4025 1062 3700 
Q 825 3375 750 2687 
z
" transform="scale(0.015625)"/>
        <path id="SimHei-31" d="M 1400 3600 
Q 1075 3275 575 2975 
L 575 3450 
Q 1200 3875 1600 4450 
L 1900 4450 
L 1900 150 
L 1400 150 
L 1400 3600 
z
" transform="scale(0.015625)"/>
        <path id="SimHei-34" d="M 2000 1100 
L 75 1100 
L 75 1525 
L 2100 4450 
L 2475 4450 
L 2475 1525 
L 3075 1525 
L 3075 1100 
L 2475 1100 
L 2475 150 
L 2000 150 
L 2000 1100 
z
M 2000 1525 
L 2000 3500 
L 600 1525 
L 2000 1525 
z
" transform="scale(0.015625)"/>
       </defs>
       <use xlink:href="#SimHei-32"/>
       <use xlink:href="#SimHei-30" x="50"/>
       <use xlink:href="#SimHei-31" x="100"/>
       <use xlink:href="#SimHei-34" x="150"/>
      </g>
     </g>
    </g>
    <g id="xtick_2">
     <g id="line2d_3">
      <path d="M 114.414545 307.584 
L 114.414545 41.472 
" clip-path="url(#pdf4a554698)" style="fill: none; stroke: #b0b0b0; stroke-width: 0.8; stroke-linecap: square"/>
     </g>
     <g id="line2d_4">
      <g>
       <use xlink:href="#mf3d574e89f" x="114.414545" y="307.584" style="stroke: #000000; stroke-width: 0.8"/>
      </g>
     </g>
     <g id="text_2">
      <!-- 2015 -->
      <g transform="translate(104.414545 321.459)scale(0.1 -0.1)">
       <defs>
        <path id="SimHei-35" d="M 550 1325 
Q 725 650 1150 575 
Q 1575 500 1837 662 
Q 2100 825 2212 1087 
Q 2325 1350 2312 1675 
Q 2300 2000 2137 2225 
Q 1975 2450 1725 2525 
Q 1475 2600 1162 2525 
Q 850 2450 650 2175 
L 225 2225 
Q 275 2375 700 4375 
L 2675 4375 
L 2675 3925 
L 1075 3925 
Q 950 3250 825 2850 
Q 1200 3025 1525 3012 
Q 1850 3000 2150 2862 
Q 2450 2725 2587 2487 
Q 2725 2250 2787 2012 
Q 2850 1775 2837 1500 
Q 2825 1225 2725 937 
Q 2625 650 2425 462 
Q 2225 275 1937 162 
Q 1650 50 1275 75 
Q 900 100 562 350 
Q 225 600 100 1200 
L 550 1325 
z
" transform="scale(0.015625)"/>
       </defs>
       <use xlink:href="#SimHei-32"/>
       <use xlink:href="#SimHei-30" x="50"/>
       <use xlink:href="#SimHei-31" x="100"/>
       <use xlink:href="#SimHei-35" x="150"/>
      </g>
     </g>
    </g>
    <g id="xtick_3">
     <g id="line2d_5">
      <path d="M 154.996364 307.584 
L 154.996364 41.472 
" clip-path="url(#pdf4a554698)" style="fill: none; stroke: #b0b0b0; stroke-width: 0.8; stroke-linecap: square"/>
     </g>
     <g id="line2d_6">
      <g>
       <use xlink:href="#mf3d574e89f" x="154.996364" y="307.584" style="stroke: #000000; stroke-width: 0.8"/>
      </g>
     </g>
     <g id="text_3">
      <!-- 2016 -->
      <g transform="translate(144.996364 321.459)scale(0.1 -0.1)">
       <defs>
        <path id="SimHei-36" d="M 250 1612 
Q 275 1975 387 2225 
Q 500 2475 725 2850 
L 1750 4450 
L 2325 4450 
L 1275 2800 
Q 1950 2975 2350 2750 
Q 2750 2525 2887 2237 
Q 3025 1950 3037 1612 
Q 3050 1275 2937 950 
Q 2825 625 2537 362 
Q 2250 100 1737 75 
Q 1225 50 862 262 
Q 500 475 362 862 
Q 225 1250 250 1612 
z
M 1025 787 
Q 1250 550 1625 525 
Q 2000 500 2250 775 
Q 2500 1050 2500 1575 
Q 2500 2100 2187 2300 
Q 1875 2500 1487 2450 
Q 1100 2400 925 2075 
Q 750 1750 775 1387 
Q 800 1025 1025 787 
z
" transform="scale(0.015625)"/>
       </defs>
       <use xlink:href="#SimHei-32"/>
       <use xlink:href="#SimHei-30" x="50"/>
       <use xlink:href="#SimHei-31" x="100"/>
       <use xlink:href="#SimHei-36" x="150"/>
      </g>
     </g>
    </g>
    <g id="xtick_4">
     <g id="line2d_7">
      <path d="M 195.578182 307.584 
L 195.578182 41.472 
" clip-path="url(#pdf4a554698)" style="fill: none; stroke: #b0b0b0; stroke-width: 0.8; stroke-linecap: square"/>
     </g>
     <g id="line2d_8">
      <g>
       <use xlink:href="#mf3d574e89f" x="195.578182" y="307.584" style="stroke: #000000; stroke-width: 0.8"/>
      </g>
     </g>
     <g id="text_4">
      <!-- 2017 -->
      <g transform="translate(185.578182 321.459)scale(0.1 -0.1)">
       <defs>
        <path id="SimHei-37" d="M 850 150 
Q 1300 2050 2425 3925 
L 275 3925 
L 275 4375 
L 2950 4375 
L 2950 3950 
Q 1775 2050 1400 150 
L 850 150 
z
" transform="scale(0.015625)"/>
       </defs>
       <use xlink:href="#SimHei-32"/>
       <use xlink:href="#SimHei-30" x="50"/>
       <use xlink:href="#SimHei-31" x="100"/>
       <use xlink:href="#SimHei-37" x="150"/>
      </g>
     </g>
    </g>
    <g id="xtick_5">
     <g id="line2d_9">
      <path d="M 236.16 307.584 
L 236.16 41.472 
" clip-path="url(#pdf4a554698)" style="fill: none; stroke: #b0b0b0; stroke-width: 0.8; stroke-linecap: square"/>
     </g>
     <g id="line2d_10">
      <g>
       <use xlink:href="#mf3d574e89f" x="236.16" y="307.584" style="stroke: #000000; stroke-width: 0.8"/>
      </g>
     </g>
     <g id="text_5">
      <!-- 2018 -->
      <g transform="translate(226.16 321.459)scale(0.1 -0.1)">
       <defs>
        <path id="SimHei-38" d="M 175 1375 
Q 175 1675 325 1962 
Q 475 2250 825 2425 
Q 525 2600 425 2812 
Q 325 3025 312 3300 
Q 300 3575 387 3775 
Q 475 3975 650 4150 
Q 825 4325 1037 4387 
Q 1250 4450 1500 4450 
Q 1750 4450 1950 4400 
Q 2150 4350 2375 4187 
Q 2600 4025 2700 3725 
Q 2800 3425 2687 3025 
Q 2575 2625 2100 2400 
Q 2525 2275 2700 2012 
Q 2875 1750 2875 1375 
Q 2875 1000 2762 775 
Q 2650 550 2512 400 
Q 2375 250 2137 162 
Q 1900 75 1537 75 
Q 1175 75 912 162 
Q 650 250 475 425 
Q 300 600 237 837 
Q 175 1075 175 1375 
z
M 687 1400 
Q 675 1100 787 875 
Q 900 650 1200 587 
Q 1500 525 1825 600 
Q 2150 675 2275 950 
Q 2400 1225 2362 1500 
Q 2325 1775 2050 1962 
Q 1775 2150 1450 2125 
Q 1125 2100 912 1900 
Q 700 1700 687 1400 
z
M 775 3350 
Q 775 3100 950 2875 
Q 1125 2650 1500 2650 
Q 1875 2650 2062 2875 
Q 2250 3100 2237 3412 
Q 2225 3725 2012 3875 
Q 1800 4025 1437 4000 
Q 1075 3975 925 3787 
Q 775 3600 775 3350 
z
" transform="scale(0.015625)"/>
       </defs>
       <use xlink:href="#SimHei-32"/>
       <use xlink:href="#SimHei-30" x="50"/>
       <use xlink:href="#SimHei-31" x="100"/>
       <use xlink:href="#SimHei-38" x="150"/>
      </g>
     </g>
    </g>
    <g id="xtick_6">
     <g id="line2d_11">
      <path d="M 276.741818 307.584 
L 276.741818 41.472 
" clip-path="url(#pdf4a554698)" style="fill: none; stroke: #b0b0b0; stroke-width: 0.8; stroke-linecap: square"/>
     </g>
     <g id="line2d_12">
      <g>
       <use xlink:href="#mf3d574e89f" x="276.741818" y="307.584" style="stroke: #000000; stroke-width: 0.8"/>
      </g>
     </g>
     <g id="text_6">
      <!-- 2019 -->
      <g transform="translate(266.741818 321.459)scale(0.1 -0.1)">
       <defs>
        <path id="SimHei-39" d="M 800 75 
Q 1350 1000 1700 1750 
Q 1075 1650 662 1912 
Q 250 2175 162 2625 
Q 75 3075 175 3437 
Q 275 3800 487 4037 
Q 700 4275 1000 4375 
Q 1300 4475 1537 4475 
Q 1775 4475 2025 4375 
Q 2275 4275 2475 4075 
Q 2675 3875 2750 3662 
Q 2825 3450 2825 3112 
Q 2825 2775 2575 2250 
Q 2325 1725 1350 75 
L 800 75 
z
M 662 2875 
Q 700 2550 937 2337 
Q 1175 2125 1450 2150 
Q 1725 2175 1887 2300 
Q 2050 2425 2200 2725 
Q 2300 3100 2250 3362 
Q 2200 3625 1987 3800 
Q 1775 3975 1525 3975 
Q 1375 4000 1137 3900 
Q 900 3800 762 3500 
Q 625 3200 662 2875 
z
" transform="scale(0.015625)"/>
       </defs>
       <use xlink:href="#SimHei-32"/>
       <use xlink:href="#SimHei-30" x="50"/>
       <use xlink:href="#SimHei-31" x="100"/>
       <use xlink:href="#SimHei-39" x="150"/>
      </g>
     </g>
    </g>
    <g id="xtick_7">
     <g id="line2d_13">
      <path d="M 317.323636 307.584 
L 317.323636 41.472 
" clip-path="url(#pdf4a554698)" style="fill: none; stroke: #b0b0b0; stroke-width: 0.8; stroke-linecap: square"/>
     </g>
     <g id="line2d_14">
      <g>
       <use xlink:href="#mf3d574e89f" x="317.323636" y="307.584" style="stroke: #000000; stroke-width: 0.8"/>
      </g>
     </g>
     <g id="text_7">
      <!-- 2020 -->
      <g transform="translate(307.323636 321.459)scale(0.1 -0.1)">
       <use xlink:href="#SimHei-32"/>
       <use xlink:href="#SimHei-30" x="50"/>
       <use xlink:href="#SimHei-32" x="100"/>
       <use xlink:href="#SimHei-30" x="150"/>
      </g>
     </g>
    </g>
    <g id="xtick_8">
     <g id="line2d_15">
      <path d="M 357.905455 307.584 
L 357.905455 41.472 
" clip-path="url(#pdf4a554698)" style="fill: none; stroke: #b0b0b0; stroke-width: 0.8; stroke-linecap: square"/>
     </g>
     <g id="line2d_16">
      <g>
       <use xlink:href="#mf3d574e89f" x="357.905455" y="307.584" style="stroke: #000000; stroke-width: 0.8"/>
      </g>
     </g>
     <g id="text_8">
      <!-- 2021 -->
      <g transform="translate(347.905455 321.459)scale(0.1 -0.1)">
       <use xlink:href="#SimHei-32"/>
       <use xlink:href="#SimHei-30" x="50"/>
       <use xlink:href="#SimHei-32" x="100"/>
       <use xlink:href="#SimHei-31" x="150"/>
      </g>
     </g>
    </g>
    <g id="xtick_9">
     <g id="line2d_17">
      <path d="M 398.487273 307.584 
L 398.487273 41.472 
" clip-path="url(#pdf4a554698)" style="fill: none; stroke: #b0b0b0; stroke-width: 0.8; stroke-linecap: square"/>
     </g>
     <g id="line2d_18">
      <g>
       <use xlink:href="#mf3d574e89f" x="398.487273" y="307.584" style="stroke: #000000; stroke-width: 0.8"/>
      </g>
     </g>
     <g id="text_9">
      <!-- 2022 -->
      <g transform="translate(388.487273 321.459)scale(0.1 -0.1)">
       <use xlink:href="#SimHei-32"/>
       <use xlink:href="#SimHei-30" x="50"/>
       <use xlink:href="#SimHei-32" x="100"/>
       <use xlink:href="#SimHei-32" x="150"/>
      </g>
     </g>
    </g>
    <g id="text_10">
     <!-- 年份 -->
     <g transform="translate(226.16 334.67775)scale(0.1 -0.1)">
      <defs>
       <path id="SimHei-5e74" d="M 350 2925 
Q 900 3450 1375 4200 
Q 1850 4950 1900 5275 
Q 2275 5125 2600 5050 
Q 2375 4825 2100 4325 
L 4625 4325 
Q 5175 4325 5750 4350 
L 5750 3925 
Q 5225 3950 4625 3950 
L 3800 3950 
L 3800 2925 
Q 4750 2925 5475 2950 
L 5475 2525 
Q 4725 2550 3800 2550 
L 3800 1375 
L 5075 1375 
Q 5625 1375 6100 1400 
L 6100 975 
Q 5650 1000 5075 1000 
L 3800 1000 
L 3800 425 
Q 3800 -150 3825 -625 
L 3275 -625 
Q 3300 -150 3300 375 
L 3300 1000 
L 1600 1000 
Q 900 1000 275 975 
L 275 1400 
Q 875 1375 1450 1375 
Q 1450 2350 1425 2925 
L 3300 2925 
L 3300 3950 
L 1875 3950 
Q 1350 3150 925 2650 
Q 650 2875 350 2925 
z
M 3300 1375 
L 3300 2550 
L 1925 2550 
L 1925 1375 
L 3300 1375 
z
" transform="scale(0.015625)"/>
       <path id="SimHei-4efd" d="M 4750 5100 
Q 4875 4375 5250 3650 
Q 5625 2925 6200 2450 
Q 6025 2375 5775 2075 
Q 5600 2275 5350 2575 
Q 5300 2275 5275 1312 
Q 5250 350 5187 25 
Q 5125 -300 4850 -400 
Q 4575 -500 4075 -550 
Q 4000 -250 3875 0 
Q 4400 -25 4575 25 
Q 4750 75 4775 587 
Q 4800 1100 4825 2250 
L 3700 2250 
Q 3675 1300 3425 650 
Q 3175 0 2375 -625 
Q 2175 -350 2000 -225 
Q 2750 225 2987 800 
Q 3225 1375 3225 2250 
Q 3000 2250 2675 2225 
L 2675 2575 
Q 2475 2300 2150 1950 
Q 2000 2150 1750 2300 
Q 2875 3275 3225 4875 
Q 3450 4775 3750 4675 
Q 3625 4400 3425 3887 
Q 3225 3375 2775 2700 
Q 3050 2675 3400 2675 
L 5300 2675 
Q 4575 3625 4275 4975 
Q 4575 5025 4750 5100 
z
M 225 2525 
Q 575 2875 1025 3687 
Q 1475 4500 1650 5225 
Q 1975 5075 2200 4975 
Q 2050 4750 1600 3775 
L 1600 625 
Q 1600 75 1625 -575 
L 1100 -575 
Q 1125 50 1125 625 
L 1125 2925 
Q 775 2400 575 2175 
Q 425 2350 225 2525 
z
" transform="scale(0.015625)"/>
      </defs>
      <use xlink:href="#SimHei-5e74"/>
      <use xlink:href="#SimHei-4efd" x="100"/>
     </g>
    </g>
   </g>
   <g id="matplotlib.axis_2">
    <g id="ytick_1">
     <g id="line2d_19">
      <path d="M 57.6 274.734189 
L 414.72 274.734189 
" clip-path="url(#pdf4a554698)" style="fill: none; stroke: #b0b0b0; stroke-width: 0.8; stroke-linecap: square"/>
     </g>
     <g id="line2d_20">
      <defs>
       <path id="m0cd06889dc" d="M 0 0 
L -3.5 0 
" style="stroke: #000000; stroke-width: 0.8"/>
      </defs>
      <g>
       <use xlink:href="#m0cd06889dc" x="57.6" y="274.734189" style="stroke: #000000; stroke-width: 0.8"/>
      </g>
     </g>
     <g id="text_11">
      <!-- 2000 -->
      <g transform="translate(30.6 278.171689)scale(0.1 -0.1)">
       <use xlink:href="#SimHei-32"/>
       <use xlink:href="#SimHei-30" x="50"/>
       <use xlink:href="#SimHei-30" x="100"/>
       <use xlink:href="#SimHei-30" x="150"/>
      </g>
     </g>
    </g>
    <g id="ytick_2">
     <g id="line2d_21">
      <path d="M 57.6 234.28336 
L 414.72 234.28336 
" clip-path="url(#pdf4a554698)" style="fill: none; stroke: #b0b0b0; stroke-width: 0.8; stroke-linecap: square"/>
     </g>
     <g id="line2d_22">
      <g>
       <use xlink:href="#m0cd06889dc" x="57.6" y="234.28336" style="stroke: #000000; stroke-width: 0.8"/>
      </g>
     </g>
     <g id="text_12">
      <!-- 3000 -->
      <g transform="translate(30.6 237.72086)scale(0.1 -0.1)">
       <defs>
        <path id="SimHei-33" d="M 250 1225 
L 700 1300 
Q 800 975 1025 762 
Q 1250 550 1587 562 
Q 1925 575 2125 837 
Q 2325 1100 2300 1437 
Q 2275 1775 2037 1962 
Q 1800 2150 1275 2225 
L 1275 2550 
Q 1800 2600 2037 2825 
Q 2275 3050 2250 3412 
Q 2225 3775 1925 3937 
Q 1625 4100 1287 3975 
Q 950 3850 750 3275 
L 300 3350 
Q 450 3800 712 4100 
Q 975 4400 1425 4450 
Q 1875 4500 2212 4337 
Q 2550 4175 2687 3837 
Q 2825 3500 2725 3100 
Q 2625 2700 2150 2400 
Q 2500 2250 2687 1950 
Q 2875 1650 2812 1162 
Q 2750 675 2375 375 
Q 2000 75 1525 87 
Q 1050 100 700 387 
Q 350 675 250 1225 
z
" transform="scale(0.015625)"/>
       </defs>
       <use xlink:href="#SimHei-33"/>
       <use xlink:href="#SimHei-30" x="50"/>
       <use xlink:href="#SimHei-30" x="100"/>
       <use xlink:href="#SimHei-30" x="150"/>
      </g>
     </g>
    </g>
    <g id="ytick_3">
     <g id="line2d_23">
      <path d="M 57.6 193.832531 
L 414.72 193.832531 
" clip-path="url(#pdf4a554698)" style="fill: none; stroke: #b0b0b0; stroke-width: 0.8; stroke-linecap: square"/>
     </g>
     <g id="line2d_24">
      <g>
       <use xlink:href="#m0cd06889dc" x="57.6" y="193.832531" style="stroke: #000000; stroke-width: 0.8"/>
      </g>
     </g>
     <g id="text_13">
      <!-- 4000 -->
      <g transform="translate(30.6 197.270031)scale(0.1 -0.1)">
       <use xlink:href="#SimHei-34"/>
       <use xlink:href="#SimHei-30" x="50"/>
       <use xlink:href="#SimHei-30" x="100"/>
       <use xlink:href="#SimHei-30" x="150"/>
      </g>
     </g>
    </g>
    <g id="ytick_4">
     <g id="line2d_25">
      <path d="M 57.6 153.381702 
L 414.72 153.381702 
" clip-path="url(#pdf4a554698)" style="fill: none; stroke: #b0b0b0; stroke-width: 0.8; stroke-linecap: square"/>
     </g>
     <g id="line2d_26">
      <g>
       <use xlink:href="#m0cd06889dc" x="57.6" y="153.381702" style="stroke: #000000; stroke-width: 0.8"/>
      </g>
     </g>
     <g id="text_14">
      <!-- 5000 -->
      <g transform="translate(30.6 156.819202)scale(0.1 -0.1)">
       <use xlink:href="#SimHei-35"/>
       <use xlink:href="#SimHei-30" x="50"/>
       <use xlink:href="#SimHei-30" x="100"/>
       <use xlink:href="#SimHei-30" x="150"/>
      </g>
     </g>
    </g>
    <g id="ytick_5">
     <g id="line2d_27">
      <path d="M 57.6 112.930874 
L 414.72 112.930874 
" clip-path="url(#pdf4a554698)" style="fill: none; stroke: #b0b0b0; stroke-width: 0.8; stroke-linecap: square"/>
     </g>
     <g id="line2d_28">
      <g>
       <use xlink:href="#m0cd06889dc" x="57.6" y="112.930874" style="stroke: #000000; stroke-width: 0.8"/>
      </g>
     </g>
     <g id="text_15">
      <!-- 6000 -->
      <g transform="translate(30.6 116.368374)scale(0.1 -0.1)">
       <use xlink:href="#SimHei-36"/>
       <use xlink:href="#SimHei-30" x="50"/>
       <use xlink:href="#SimHei-30" x="100"/>
       <use xlink:href="#SimHei-30" x="150"/>
      </g>
     </g>
    </g>
    <g id="ytick_6">
     <g id="line2d_29">
      <path d="M 57.6 72.480045 
L 414.72 72.480045 
" clip-path="url(#pdf4a554698)" style="fill: none; stroke: #b0b0b0; stroke-width: 0.8; stroke-linecap: square"/>
     </g>
     <g id="line2d_30">
      <g>
       <use xlink:href="#m0cd06889dc" x="57.6" y="72.480045" style="stroke: #000000; stroke-width: 0.8"/>
      </g>
     </g>
     <g id="text_16">
      <!-- 7000 -->
      <g transform="translate(30.6 75.917545)scale(0.1 -0.1)">
       <use xlink:href="#SimHei-37"/>
       <use xlink:href="#SimHei-30" x="50"/>
       <use xlink:href="#SimHei-30" x="100"/>
       <use xlink:href="#SimHei-30" x="150"/>
      </g>
     </g>
    </g>
    <g id="text_17">
     <!-- 房价销售额(亿) -->
     <g transform="translate(25.35 209.528)rotate(-90)scale(0.1 -0.1)">
      <defs>
       <path id="SimHei-623f" d="M 3175 2800 
Q 3500 2850 3700 2975 
Q 3925 2475 3975 2300 
L 5100 2300 
Q 5525 2300 6025 2325 
L 6025 1875 
Q 5525 1900 5100 1900 
L 3225 1900 
Q 3200 1550 3175 1325 
L 5525 1325 
Q 5475 950 5412 537 
Q 5350 125 5287 -112 
Q 5225 -350 5050 -437 
Q 4875 -525 4000 -600 
Q 3925 -275 3800 -50 
Q 4550 -100 4687 -25 
Q 4825 50 4875 250 
Q 4925 500 4975 900 
L 3100 900 
Q 2975 425 2612 0 
Q 2250 -425 1750 -725 
Q 1625 -500 1350 -325 
Q 1675 -200 1925 0 
Q 2175 200 2375 487 
Q 2575 775 2650 1137 
Q 2725 1500 2725 1900 
L 1500 1900 
Q 1475 1250 1262 562 
Q 1050 -125 750 -600 
Q 550 -375 275 -275 
Q 475 -50 687 387 
Q 900 825 975 1400 
Q 1050 1975 1050 2850 
Q 1050 3750 1025 4500 
L 3100 4500 
Q 3025 4750 2875 5100 
Q 3150 5175 3400 5275 
Q 3625 4700 3650 4500 
L 5575 4500 
Q 5550 4100 5550 3700 
Q 5550 3300 5575 3000 
L 1525 3000 
L 1525 2300 
L 3425 2300 
Q 3350 2600 3175 2800 
z
M 5100 3375 
L 5100 4100 
L 1525 4100 
L 1525 3375 
L 5100 3375 
z
" transform="scale(0.015625)"/>
       <path id="SimHei-4ef7" d="M 2200 4975 
Q 2050 4725 1650 3775 
L 1650 450 
Q 1650 -225 1675 -650 
L 1175 -650 
Q 1175 -225 1200 450 
L 1200 2975 
Q 900 2425 650 2100 
Q 525 2275 225 2450 
Q 750 3025 1125 3800 
Q 1500 4575 1625 5175 
Q 1950 5025 2200 4975 
z
M 4175 4700 
Q 4850 3525 6150 2950 
Q 5925 2750 5775 2500 
Q 4725 3100 3950 4300 
Q 3300 3125 2250 2350 
Q 2125 2525 1900 2725 
Q 2825 3325 3250 4050 
Q 3675 4775 3750 5150 
Q 4150 4950 4325 4900 
L 4175 4700 
z
M 3475 2650 
Q 3400 2075 3325 1087 
Q 3250 100 2325 -675 
Q 2175 -450 1925 -300 
Q 2850 350 2912 1262 
Q 2975 2175 2950 2700 
Q 3275 2650 3475 2650 
z
M 5075 2700 
Q 5050 2150 5050 1725 
L 5050 150 
Q 5050 -225 5075 -650 
L 4550 -650 
Q 4575 -225 4575 175 
L 4575 1875 
Q 4575 2150 4550 2700 
L 5075 2700 
z
" transform="scale(0.015625)"/>
       <path id="SimHei-9500" d="M 4175 4325 
Q 4175 4700 4150 5125 
L 4650 5125 
Q 4625 4850 4625 4325 
L 4625 3225 
L 5825 3225 
Q 5800 2850 5800 2225 
L 5800 50 
Q 5800 -300 5562 -375 
Q 5325 -450 4925 -525 
Q 4875 -275 4700 -25 
Q 5275 0 5300 112 
Q 5325 225 5325 825 
L 3575 825 
L 3575 -450 
L 3100 -450 
Q 3125 75 3125 400 
L 3125 2175 
Q 3125 2800 3100 3225 
L 4175 3225 
L 4175 4325 
z
M 2350 2700 
Q 2025 2725 1700 2725 
L 1700 1975 
Q 2125 1975 2600 2000 
L 2600 1550 
Q 2125 1575 1700 1575 
L 1700 425 
Q 1925 575 2250 925 
Q 2325 700 2500 475 
Q 2250 300 1975 87 
Q 1700 -125 1400 -450 
Q 1275 -225 1075 -50 
Q 1225 100 1250 400 
L 1250 1575 
Q 950 1575 525 1550 
L 525 2000 
Q 950 1975 1250 1975 
L 1250 2725 
Q 950 2725 750 2700 
L 750 3150 
Q 1075 3125 1500 3125 
Q 1950 3125 2350 3150 
L 2350 2700 
z
M 625 3075 
Q 450 3275 225 3375 
Q 600 3750 875 4200 
Q 1150 4650 1325 5125 
Q 1675 4925 1875 4850 
Q 1550 4400 1450 4200 
Q 2075 4200 2500 4225 
L 2500 3750 
Q 2075 3775 1200 3775 
Q 825 3275 625 3075 
z
M 5325 2200 
L 5325 2850 
L 3575 2850 
L 3575 2200 
L 5325 2200 
z
M 5325 1200 
L 5325 1825 
L 3575 1825 
L 3575 1200 
L 5325 1200 
z
M 6050 4550 
Q 5850 4300 5450 3525 
Q 5225 3650 4975 3725 
Q 5250 4050 5525 4775 
Q 5725 4650 6050 4550 
z
M 3200 4775 
Q 3600 4150 3800 3800 
Q 3575 3700 3350 3550 
Q 3175 3950 2775 4525 
Q 3025 4625 3200 4775 
z
" transform="scale(0.015625)"/>
       <path id="SimHei-552e" d="M 2325 4925 
Q 2200 4825 1950 4425 
L 4925 4425 
Q 5350 4425 5775 4450 
L 5775 4050 
Q 5350 4075 4925 4075 
L 3775 4075 
L 3775 3650 
L 4650 3650 
Q 5075 3650 5450 3675 
L 5450 3225 
Q 5100 3275 4675 3275 
L 3775 3275 
L 3775 2850 
L 5475 2850 
L 5475 2425 
Q 5125 2450 4700 2450 
L 3775 2450 
L 3775 1975 
L 4825 1975 
Q 5325 1975 5900 2000 
L 5900 1550 
Q 5350 1600 4825 1600 
L 1800 1600 
L 1800 1375 
L 1275 1375 
Q 1300 1975 1300 3400 
Q 975 2850 700 2575 
Q 525 2800 350 2900 
Q 625 3225 837 3537 
Q 1050 3850 1300 4237 
Q 1550 4625 1725 5225 
Q 2050 5050 2325 4925 
z
M 5350 1175 
Q 5325 800 5325 275 
Q 5325 -250 5350 -650 
L 4825 -650 
L 4825 -375 
L 1725 -375 
L 1725 -675 
L 1200 -675 
Q 1250 -250 1250 275 
Q 1250 800 1200 1175 
L 5350 1175 
z
M 4825 25 
L 4825 775 
L 1725 775 
L 1725 25 
L 4825 25 
z
M 3275 1975 
L 3275 2450 
L 1800 2450 
L 1800 1975 
L 3275 1975 
z
M 3275 3650 
L 3275 4075 
L 1800 4075 
L 1800 3650 
L 3275 3650 
z
M 3275 2850 
L 3275 3275 
L 1800 3275 
L 1800 2850 
L 3275 2850 
z
M 3600 5275 
Q 3850 4875 3950 4675 
Q 3800 4625 3500 4500 
Q 3425 4700 3175 5075 
Q 3400 5150 3600 5275 
z
" transform="scale(0.015625)"/>
       <path id="SimHei-989d" d="M 1925 3700 
Q 1725 3550 1550 3350 
L 2950 3350 
Q 2875 3150 2700 2875 
Q 2525 2600 2300 2300 
Q 2500 2200 2712 2075 
Q 2925 1950 3275 1725 
Q 3125 1575 2950 1325 
Q 2700 1525 2475 1662 
Q 2250 1800 1950 1950 
Q 1575 1650 1150 1375 
L 2800 1375 
Q 2775 950 2775 500 
Q 2775 50 2800 -450 
L 2325 -450 
L 2325 -50 
L 1325 -50 
L 1325 -575 
L 875 -575 
Q 900 -75 900 275 
L 900 1175 
Q 675 1075 550 1000 
Q 400 1225 225 1400 
Q 625 1550 975 1762 
Q 1325 1975 1550 2200 
Q 1300 2350 1075 2475 
Q 1175 2625 1350 2800 
Q 1625 2650 1925 2500 
Q 2150 2750 2300 3000 
L 1300 3000 
Q 1200 2875 1025 2687 
Q 850 2500 650 2275 
Q 475 2425 250 2575 
Q 650 2875 937 3237 
Q 1225 3600 1375 3925 
Q 1650 3800 1925 3700 
z
M 4150 4400 
Q 3775 4400 3375 4375 
L 3375 4825 
Q 3750 4800 4200 4800 
L 5300 4800 
Q 5600 4800 6000 4825 
L 6000 4375 
Q 5625 4400 5300 4400 
L 4950 4400 
Q 4850 3975 4725 3525 
L 5750 3525 
Q 5725 3125 5725 2775 
L 5725 1625 
Q 5725 1300 5750 825 
L 5300 825 
L 5300 3175 
L 3925 3175 
L 3925 800 
L 3450 800 
Q 3475 1275 3475 1650 
L 3475 2800 
Q 3475 3175 3450 3525 
L 4300 3525 
Q 4400 4025 4450 4400 
L 4150 4400 
z
M 2050 5100 
Q 2100 4825 2200 4475 
L 3225 4475 
Q 3200 4275 3200 4075 
Q 3200 3875 3225 3675 
L 2775 3675 
L 2775 4100 
L 875 4100 
L 875 3500 
L 400 3500 
Q 425 3775 425 4000 
Q 425 4250 400 4475 
L 1650 4475 
Q 1550 4750 1475 5000 
Q 1800 5050 2050 5100 
z
M 4925 2725 
Q 4850 2425 4837 2025 
Q 4825 1625 4712 1175 
Q 4600 725 4262 250 
Q 3925 -225 3250 -675 
Q 3050 -425 2850 -250 
Q 3375 -25 3687 262 
Q 4000 550 4162 937 
Q 4325 1325 4350 1750 
Q 4375 2175 4375 2775 
Q 4575 2750 4925 2725 
z
M 2325 325 
L 2325 1025 
L 1325 1025 
L 1325 325 
L 2325 325 
z
M 5075 800 
Q 5300 575 5487 400 
Q 5675 225 6025 -100 
Q 5800 -275 5600 -500 
Q 5450 -275 5275 -87 
Q 5100 100 4675 400 
Q 4875 575 5075 800 
z
" transform="scale(0.015625)"/>
       <path id="SimHei-28" d="M 2975 -200 
L 2700 -475 
Q 2075 125 1762 775 
Q 1450 1425 1450 2250 
Q 1450 3075 1762 3725 
Q 2075 4375 2700 5000 
L 2975 4725 
Q 2400 4175 2112 3587 
Q 1825 3000 1825 2250 
Q 1825 1500 2112 912 
Q 2400 325 2975 -200 
z
" transform="scale(0.015625)"/>
       <path id="SimHei-4ebf" d="M 5225 4500 
L 5225 4075 
Q 4875 3850 4137 2775 
Q 3400 1700 3075 925 
Q 2750 150 3225 75 
Q 3700 0 4425 25 
Q 5150 50 5250 262 
Q 5350 475 5400 1050 
Q 5700 850 5975 800 
Q 5850 225 5775 37 
Q 5700 -150 5475 -275 
Q 5250 -400 4025 -412 
Q 2800 -425 2550 -37 
Q 2300 350 2575 1025 
Q 2850 1700 3425 2575 
Q 4000 3450 4400 4000 
L 3325 4000 
Q 2725 4000 2375 3975 
L 2375 4525 
Q 2700 4500 3325 4500 
L 5225 4500 
z
M 2325 4925 
Q 2250 4825 2100 4525 
Q 1950 4225 1800 3825 
L 1800 600 
Q 1800 -200 1825 -625 
L 1275 -625 
Q 1300 -225 1300 575 
L 1300 2950 
Q 975 2400 625 1900 
Q 450 2175 275 2325 
Q 825 2975 1212 3787 
Q 1600 4600 1775 5200 
Q 2025 5050 2325 4925 
z
" transform="scale(0.015625)"/>
       <path id="SimHei-29" d="M 1675 2250 
Q 1675 1425 1362 775 
Q 1050 125 425 -475 
L 150 -200 
Q 725 325 1012 912 
Q 1300 1500 1300 2250 
Q 1300 3000 1012 3587 
Q 725 4175 150 4725 
L 425 5000 
Q 1050 4375 1362 3725 
Q 1675 3075 1675 2250 
z
" transform="scale(0.015625)"/>
      </defs>
      <use xlink:href="#SimHei-623f"/>
      <use xlink:href="#SimHei-4ef7" x="100"/>
      <use xlink:href="#SimHei-9500" x="200"/>
      <use xlink:href="#SimHei-552e" x="300"/>
      <use xlink:href="#SimHei-989d" x="400"/>
      <use xlink:href="#SimHei-28" x="500"/>
      <use xlink:href="#SimHei-4ebf" x="550"/>
      <use xlink:href="#SimHei-29" x="650"/>
     </g>
    </g>
   </g>
   <g id="line2d_31">
    <path d="M 73.832727 194.766314 
L 114.414545 174.154356 
L 154.996364 207.713342 
L 195.578182 219.276851 
L 236.16 259.484396 
L 276.741818 242.53431 
L 317.323636 171.115184 
L 357.905455 213.343992 
L 398.487273 244.851661 
" clip-path="url(#pdf4a554698)" style="fill: none; stroke: #1f77b4; stroke-width: 1.5; stroke-linecap: square"/>
    <defs>
     <path id="m214509c7e5" d="M 0 3 
C 0.795609 3 1.55874 2.683901 2.12132 2.12132 
C 2.683901 1.55874 3 0.795609 3 0 
C 3 -0.795609 2.683901 -1.55874 2.12132 -2.12132 
C 1.55874 -2.683901 0.795609 -3 0 -3 
C -0.795609 -3 -1.55874 -2.683901 -2.12132 -2.12132 
C -2.683901 -1.55874 -3 -0.795609 -3 0 
C -3 0.795609 -2.683901 1.55874 -2.12132 2.12132 
C -1.55874 2.683901 -0.795609 3 0 3 
z
" style="stroke: #1f77b4"/>
    </defs>
    <g clip-path="url(#pdf4a554698)">
     <use xlink:href="#m214509c7e5" x="73.832727" y="194.766314" style="fill: #1f77b4; stroke: #1f77b4"/>
     <use xlink:href="#m214509c7e5" x="114.414545" y="174.154356" style="fill: #1f77b4; stroke: #1f77b4"/>
     <use xlink:href="#m214509c7e5" x="154.996364" y="207.713342" style="fill: #1f77b4; stroke: #1f77b4"/>
     <use xlink:href="#m214509c7e5" x="195.578182" y="219.276851" style="fill: #1f77b4; stroke: #1f77b4"/>
     <use xlink:href="#m214509c7e5" x="236.16" y="259.484396" style="fill: #1f77b4; stroke: #1f77b4"/>
     <use xlink:href="#m214509c7e5" x="276.741818" y="242.53431" style="fill: #1f77b4; stroke: #1f77b4"/>
     <use xlink:href="#m214509c7e5" x="317.323636" y="171.115184" style="fill: #1f77b4; stroke: #1f77b4"/>
     <use xlink:href="#m214509c7e5" x="357.905455" y="213.343992" style="fill: #1f77b4; stroke: #1f77b4"/>
     <use xlink:href="#m214509c7e5" x="398.487273" y="244.851661" style="fill: #1f77b4; stroke: #1f77b4"/>
    </g>
   </g>
   <g id="line2d_32">
    <path d="M 73.832727 53.568 
L 114.414545 81.026124 
L 154.996364 111.031019 
L 195.578182 145.137115 
L 236.16 163.433592 
L 276.741818 192.753651 
L 317.323636 84.783253 
L 357.905455 149.597576 
L 398.487273 214.077002 
" clip-path="url(#pdf4a554698)" style="fill: none; stroke: #ff7f0e; stroke-width: 1.5; stroke-linecap: square"/>
    <defs>
     <path id="m9a8929c3fd" d="M -3 3 
L 3 -3 
M -3 -3 
L 3 3 
" style="stroke: #ff7f0e"/>
    </defs>
    <g clip-path="url(#pdf4a554698)">
     <use xlink:href="#m9a8929c3fd" x="73.832727" y="53.568" style="fill: #ff7f0e; stroke: #ff7f0e"/>
     <use xlink:href="#m9a8929c3fd" x="114.414545" y="81.026124" style="fill: #ff7f0e; stroke: #ff7f0e"/>
     <use xlink:href="#m9a8929c3fd" x="154.996364" y="111.031019" style="fill: #ff7f0e; stroke: #ff7f0e"/>
     <use xlink:href="#m9a8929c3fd" x="195.578182" y="145.137115" style="fill: #ff7f0e; stroke: #ff7f0e"/>
     <use xlink:href="#m9a8929c3fd" x="236.16" y="163.433592" style="fill: #ff7f0e; stroke: #ff7f0e"/>
     <use xlink:href="#m9a8929c3fd" x="276.741818" y="192.753651" style="fill: #ff7f0e; stroke: #ff7f0e"/>
     <use xlink:href="#m9a8929c3fd" x="317.323636" y="84.783253" style="fill: #ff7f0e; stroke: #ff7f0e"/>
     <use xlink:href="#m9a8929c3fd" x="357.905455" y="149.597576" style="fill: #ff7f0e; stroke: #ff7f0e"/>
     <use xlink:href="#m9a8929c3fd" x="398.487273" y="214.077002" style="fill: #ff7f0e; stroke: #ff7f0e"/>
    </g>
   </g>
   <g id="line2d_33">
    <path d="M 73.832727 294.297415 
L 114.414545 261.678425 
L 154.996364 270.138505 
L 195.578182 263.645059 
L 236.16 274.466424 
L 276.741818 263.719323 
L 317.323636 214.938871 
L 357.905455 283.22841 
L 398.487273 295.488 
" clip-path="url(#pdf4a554698)" style="fill: none; stroke: #2ca02c; stroke-width: 1.5; stroke-linecap: square"/>
    <defs>
     <path id="m8e1c3406a7" d="M 0 3 
C 0.795609 3 1.55874 2.683901 2.12132 2.12132 
C 2.683901 1.55874 3 0.795609 3 0 
C 3 -0.795609 2.683901 -1.55874 2.12132 -2.12132 
C 1.55874 -2.683901 0.795609 -3 0 -3 
C -0.795609 -3 -1.55874 -2.683901 -2.12132 -2.12132 
C -2.683901 -1.55874 -3 -0.795609 -3 0 
C -3 0.795609 -2.683901 1.55874 -2.12132 2.12132 
C -1.55874 2.683901 -0.795609 3 0 3 
z
" style="stroke: #2ca02c"/>
    </defs>
    <g clip-path="url(#pdf4a554698)">
     <use xlink:href="#m8e1c3406a7" x="73.832727" y="294.297415" style="fill: #2ca02c; stroke: #2ca02c"/>
     <use xlink:href="#m8e1c3406a7" x="114.414545" y="261.678425" style="fill: #2ca02c; stroke: #2ca02c"/>
     <use xlink:href="#m8e1c3406a7" x="154.996364" y="270.138505" style="fill: #2ca02c; stroke: #2ca02c"/>
     <use xlink:href="#m8e1c3406a7" x="195.578182" y="263.645059" style="fill: #2ca02c; stroke: #2ca02c"/>
     <use xlink:href="#m8e1c3406a7" x="236.16" y="274.466424" style="fill: #2ca02c; stroke: #2ca02c"/>
     <use xlink:href="#m8e1c3406a7" x="276.741818" y="263.719323" style="fill: #2ca02c; stroke: #2ca02c"/>
     <use xlink:href="#m8e1c3406a7" x="317.323636" y="214.938871" style="fill: #2ca02c; stroke: #2ca02c"/>
     <use xlink:href="#m8e1c3406a7" x="357.905455" y="283.22841" style="fill: #2ca02c; stroke: #2ca02c"/>
     <use xlink:href="#m8e1c3406a7" x="398.487273" y="295.488" style="fill: #2ca02c; stroke: #2ca02c"/>
    </g>
   </g>
   <g id="patch_3">
    <path d="M 57.6 307.584 
L 57.6 41.472 
" style="fill: none; stroke: #000000; stroke-width: 0.8; stroke-linejoin: miter; stroke-linecap: square"/>
   </g>
   <g id="patch_4">
    <path d="M 414.72 307.584 
L 414.72 41.472 
" style="fill: none; stroke: #000000; stroke-width: 0.8; stroke-linejoin: miter; stroke-linecap: square"/>
   </g>
   <g id="patch_5">
    <path d="M 57.6 307.584 
L 414.72 307.584 
" style="fill: none; stroke: #000000; stroke-width: 0.8; stroke-linejoin: miter; stroke-linecap: square"/>
   </g>
   <g id="patch_6">
    <path d="M 57.6 41.472 
L 414.72 41.472 
" style="fill: none; stroke: #000000; stroke-width: 0.8; stroke-linejoin: miter; stroke-linecap: square"/>
   </g>
   <g id="legend_1">
    <g id="patch_7">
     <path d="M 355.72 92.12825 
L 407.72 92.12825 
Q 409.72 92.12825 409.72 90.12825 
L 409.72 48.472 
Q 409.72 46.472 407.72 46.472 
L 355.72 46.472 
Q 353.72 46.472 353.72 48.472 
L 353.72 90.12825 
Q 353.72 92.12825 355.72 92.12825 
z
" style="fill: #ffffff; opacity: 0.8; stroke: #cccccc; stroke-linejoin: miter"/>
    </g>
    <g id="line2d_34">
     <path d="M 357.72 54.979813 
L 367.72 54.979813 
L 377.72 54.979813 
" style="fill: none; stroke: #1f77b4; stroke-width: 1.5; stroke-linecap: square"/>
     <g>
      <use xlink:href="#m214509c7e5" x="367.72" y="54.979813" style="fill: #1f77b4; stroke: #1f77b4"/>
     </g>
    </g>
    <g id="text_18">
     <!-- 北京 -->
     <g transform="translate(385.72 58.479813)scale(0.1 -0.1)">
      <defs>
       <path id="SimHei-5317" d="M 4100 5025 
Q 4075 4775 4075 4525 
L 4075 2825 
Q 4950 3225 5600 3800 
Q 5750 3550 6000 3325 
Q 5725 3200 5125 2887 
Q 4525 2575 4075 2375 
L 4075 500 
Q 4075 100 4450 75 
L 5075 75 
Q 5325 50 5425 162 
Q 5525 275 5625 800 
Q 5825 600 6200 550 
Q 6000 25 5837 -162 
Q 5675 -350 5375 -350 
L 4275 -350 
Q 3575 -350 3600 400 
L 3600 4525 
Q 3600 4775 3575 5025 
L 4100 5025 
z
M 2175 3225 
L 2175 4500 
Q 2175 4700 2150 5025 
L 2675 5025 
Q 2650 4700 2650 4475 
L 2650 300 
Q 2650 25 2675 -475 
L 2150 -475 
Q 2175 25 2175 475 
Q 1650 350 1225 212 
Q 800 75 600 -50 
Q 475 225 300 500 
Q 575 525 1200 675 
Q 1825 825 2175 925 
L 2175 2800 
L 1275 2800 
Q 975 2800 600 2775 
L 600 3250 
Q 975 3225 1275 3225 
L 2175 3225 
z
" transform="scale(0.015625)"/>
       <path id="SimHei-4eac" d="M 5100 3450 
Q 5075 3050 5075 2475 
Q 5075 1925 5100 1625 
L 3525 1625 
L 3525 100 
Q 3525 -325 3300 -450 
Q 3075 -575 2450 -650 
Q 2375 -350 2200 -100 
Q 2750 -125 2887 -75 
Q 3025 -25 3025 275 
L 3025 1625 
L 1375 1625 
Q 1400 2050 1400 2575 
Q 1400 3100 1375 3450 
L 5100 3450 
z
M 3150 5275 
Q 3400 4875 3625 4400 
L 5000 4400 
Q 5575 4400 6000 4425 
L 6000 3950 
Q 5575 3975 5000 3975 
L 1425 3975 
Q 950 3975 425 3950 
L 425 4425 
Q 925 4400 1425 4400 
L 3025 4400 
Q 2950 4625 2675 5075 
Q 2975 5175 3150 5275 
z
M 4575 2050 
L 4575 3025 
L 1900 3025 
L 1900 2050 
L 4575 2050 
z
M 2325 1075 
Q 1875 625 850 -325 
Q 650 -100 450 75 
Q 1500 850 1925 1475 
Q 2100 1250 2325 1075 
z
M 4400 1375 
Q 4925 975 5312 662 
Q 5700 350 5900 150 
Q 5700 -50 5500 -275 
Q 5150 125 4075 975 
Q 4225 1150 4400 1375 
z
" transform="scale(0.015625)"/>
      </defs>
      <use xlink:href="#SimHei-5317"/>
      <use xlink:href="#SimHei-4eac" x="100"/>
     </g>
    </g>
    <g id="line2d_35">
     <path d="M 357.72 69.237625 
L 367.72 69.237625 
L 377.72 69.237625 
" style="fill: none; stroke: #ff7f0e; stroke-width: 1.5; stroke-linecap: square"/>
     <g>
      <use xlink:href="#m9a8929c3fd" x="367.72" y="69.237625" style="fill: #ff7f0e; stroke: #ff7f0e"/>
     </g>
    </g>
    <g id="text_19">
     <!-- 上海 -->
     <g transform="translate(385.72 72.737625)scale(0.1 -0.1)">
      <defs>
       <path id="SimHei-4e0a" d="M 3250 5075 
Q 3225 4650 3225 4275 
L 3225 3225 
L 4650 3225 
Q 5150 3225 5600 3250 
L 5600 2700 
Q 5100 2725 4600 2725 
L 3225 2725 
L 3225 200 
L 5200 200 
Q 5575 200 6075 225 
L 6075 -300 
Q 5600 -275 5200 -275 
L 1250 -275 
Q 850 -275 350 -300 
L 350 225 
Q 825 200 1250 200 
L 2700 200 
L 2700 4250 
Q 2700 4625 2675 5075 
L 3250 5075 
z
" transform="scale(0.015625)"/>
       <path id="SimHei-6d77" d="M 5325 600 
Q 5500 600 5800 625 
L 5800 175 
Q 5600 200 5300 200 
Q 5250 -375 5062 -500 
Q 4875 -625 4450 -675 
Q 4375 -450 4250 -175 
Q 4625 -200 4737 -137 
Q 4850 -75 4875 200 
L 2475 200 
Q 2550 975 2600 1725 
Q 2325 1725 2025 1700 
L 2025 2150 
Q 2275 2125 2625 2125 
Q 2675 3050 2700 3475 
Q 2575 3300 2250 2875 
Q 2075 3050 1875 3175 
Q 2300 3600 2587 4175 
Q 2875 4750 3000 5250 
Q 3300 5075 3525 5025 
Q 3425 4900 3250 4525 
L 5050 4525 
Q 5525 4525 5900 4550 
L 5900 4100 
Q 5525 4125 5025 4125 
L 3075 4125 
Q 2900 3825 2725 3550 
L 5450 3550 
Q 5425 2950 5400 2125 
Q 5675 2125 6000 2150 
L 6000 1700 
Q 5675 1725 5375 1725 
Q 5350 1400 5325 600 
z
M 4975 1725 
L 3000 1725 
Q 2950 1050 2925 600 
L 4925 600 
L 4975 1725 
z
M 3075 3150 
Q 3075 2825 3025 2125 
L 5000 2125 
Q 5000 2675 5025 3150 
L 3075 3150 
z
M 1750 1525 
Q 1600 1300 1375 750 
Q 1150 200 775 -475 
Q 675 -325 300 -200 
Q 600 225 875 787 
Q 1150 1350 1350 1850 
Q 1525 1650 1750 1525 
z
M 1400 2225 
Q 725 2775 250 3050 
Q 425 3225 525 3450 
Q 975 3175 1725 2650 
Q 1525 2425 1400 2225 
z
M 825 5050 
Q 1300 4775 2025 4300 
Q 1850 4075 1700 3875 
Q 1125 4350 550 4675 
Q 725 4875 825 5050 
z
M 3875 1625 
Q 4150 1225 4325 900 
Q 4125 800 3975 675 
Q 3775 1075 3550 1400 
Q 3725 1525 3875 1625 
z
M 3925 3100 
Q 4200 2700 4350 2400 
Q 4150 2300 4000 2175 
Q 3850 2500 3625 2875 
L 3925 3100 
z
" transform="scale(0.015625)"/>
      </defs>
      <use xlink:href="#SimHei-4e0a"/>
      <use xlink:href="#SimHei-6d77" x="100"/>
     </g>
    </g>
    <g id="line2d_36">
     <path d="M 357.72 83.37825 
L 367.72 83.37825 
L 377.72 83.37825 
" style="fill: none; stroke: #2ca02c; stroke-width: 1.5; stroke-linecap: square"/>
     <g>
      <use xlink:href="#m8e1c3406a7" x="367.72" y="83.37825" style="fill: #2ca02c; stroke: #2ca02c"/>
     </g>
    </g>
    <g id="text_20">
     <!-- 天津 -->
     <g transform="translate(385.72 86.87825)scale(0.1 -0.1)">
      <defs>
       <path id="SimHei-5929" d="M 4475 4900 
Q 4925 4900 5375 4925 
L 5375 4400 
Q 4925 4425 4475 4425 
L 3450 4425 
L 3450 3075 
L 5050 3075 
Q 5525 3075 5900 3100 
L 5900 2575 
Q 5550 2600 5075 2600 
L 3525 2600 
Q 3875 1650 4525 975 
Q 5175 300 6200 50 
Q 5850 -225 5775 -450 
Q 5000 -175 4350 412 
Q 3700 1000 3225 2100 
Q 2925 1075 2275 462 
Q 1625 -150 650 -575 
Q 550 -325 225 -100 
Q 950 100 1750 737 
Q 2550 1375 2875 2600 
L 1500 2600 
Q 950 2600 575 2575 
L 575 3100 
Q 975 3075 1500 3075 
L 2950 3075 
L 2950 4425 
L 1900 4425 
Q 1375 4425 1000 4400 
L 1000 4925 
Q 1400 4900 1900 4900 
L 4475 4900 
z
" transform="scale(0.015625)"/>
       <path id="SimHei-6d25" d="M 3525 4550 
Q 3525 4975 3500 5225 
L 4000 5225 
Q 3975 4975 3975 4550 
L 5475 4550 
Q 5450 4225 5450 3600 
Q 5700 3600 6050 3625 
L 6050 3200 
Q 5700 3225 5450 3225 
Q 5450 2600 5475 2225 
L 3975 2225 
L 3975 1675 
L 4850 1675 
Q 5225 1675 5650 1700 
L 5650 1275 
Q 5250 1300 4850 1300 
L 3975 1300 
L 3975 750 
L 5025 750 
Q 5425 750 5900 775 
L 5900 350 
Q 5450 375 5050 375 
L 3975 375 
Q 3975 -75 4000 -625 
L 3500 -625 
Q 3525 -75 3525 375 
L 2650 375 
Q 2175 375 1775 350 
L 1775 775 
Q 2175 750 2650 750 
L 3525 750 
L 3525 1300 
Q 2600 1300 2050 1275 
L 2050 1700 
Q 2600 1675 3525 1675 
L 3525 2225 
Q 2725 2225 2225 2200 
L 2225 2625 
Q 2725 2600 3525 2600 
L 3525 3225 
L 2875 3225 
Q 2350 3225 1800 3200 
L 1800 3625 
Q 2425 3600 2875 3600 
L 3525 3600 
L 3525 4175 
Q 2650 4175 2225 4150 
L 2225 4575 
Q 2625 4550 3525 4550 
z
M 1750 1675 
Q 1500 1250 1212 612 
Q 925 -25 750 -375 
Q 500 -175 200 -50 
Q 400 150 775 875 
Q 1150 1600 1325 2050 
Q 1525 1850 1750 1675 
z
M 5000 2600 
L 5000 3225 
L 3975 3225 
L 3975 2600 
L 5000 2600 
z
M 625 3475 
Q 1150 3175 1675 2775 
Q 1500 2625 1325 2350 
Q 850 2775 325 3075 
Q 475 3225 625 3475 
z
M 950 4925 
Q 1425 4600 1900 4175 
Q 1675 4000 1525 3775 
Q 1150 4200 600 4550 
Q 825 4725 950 4925 
z
M 5000 3600 
L 5000 4175 
L 3975 4175 
L 3975 3600 
L 5000 3600 
z
" transform="scale(0.015625)"/>
      </defs>
      <use xlink:href="#SimHei-5929"/>
      <use xlink:href="#SimHei-6d25" x="100"/>
     </g>
    </g>
   </g>
  </g>
 </g>
 <defs>
  <clipPath id="pdf4a554698">
   <rect x="57.6" y="41.472" width="357.12" height="266.112"/>
  </clipPath>
 </defs>
</svg>
